<svg height="512" viewBox="0 0 512 512" width="512" xmlns="http://www.w3.org/2000/svg"><g id="Flat"><path d="m112 48h288v440h-288z" fill="#f96d00"/><path d="m112 48h288v16h-288z" fill="#f76400"/><path d="m336 392h32v64h-32z" fill="#348ed8"/><path d="m208 392h96v64h-96z" fill="#348ed8"/><path d="m144 392h32v64h-32z" fill="#348ed8"/><path d="m144 416h32v16h-32z" fill="#2d7dbe"/><path d="m336 416h32v16h-32z" fill="#2d7dbe"/><path d="m112 24h288v24h-288z" fill="#ff7d19"/><path d="m232 48h16v32h-16z" fill="#ff7d19"/><path d="m200 48h16v32h-16z" fill="#ff7d19"/><path d="m168 48h16v32h-16z" fill="#ff7d19"/><path d="m136 48h16v32h-16z" fill="#ff7d19"/><path d="m360 48h16v32h-16z" fill="#ff7d19"/><path d="m328 48h16v32h-16z" fill="#ff7d19"/><path d="m296 48h16v32h-16z" fill="#ff7d19"/><path d="m264 48h16v32h-16z" fill="#ff7d19"/><path d="m232 48h16v16h-16z" fill="#f96d00"/><path d="m200 48h16v16h-16z" fill="#f96d00"/><path d="m168 48h16v16h-16z" fill="#f96d00"/><path d="m136 48h16v16h-16z" fill="#f96d00"/><path d="m360 48h16v16h-16z" fill="#f96d00"/><path d="m328 48h16v16h-16z" fill="#f96d00"/><path d="m296 48h16v16h-16z" fill="#f96d00"/><path d="m264 48h16v16h-16z" fill="#f96d00"/><path d="m232 80h16v16h-16z" fill="#f76400"/><path d="m200 80h16v16h-16z" fill="#f76400"/><path d="m168 80h16v16h-16z" fill="#f76400"/><path d="m136 80h16v16h-16z" fill="#f76400"/><path d="m360 80h16v16h-16z" fill="#f76400"/><path d="m328 80h16v16h-16z" fill="#f76400"/><path d="m296 80h16v16h-16z" fill="#f76400"/><path d="m264 80h16v16h-16z" fill="#f76400"/><path d="m96 456h320v32h-320z" fill="#dfdfdd"/><path d="m208 456h96v32h-96z" fill="#d5d5d3"/><path d="m272 104h32v64h-32z" fill="#348ed8"/><path d="m336 104h32v64h-32z" fill="#348ed8"/><path d="m208 104h32v64h-32z" fill="#348ed8"/><path d="m144 104h32v64h-32z" fill="#348ed8"/><path d="m272 200h32v64h-32z" fill="#348ed8"/><path d="m336 200h32v64h-32z" fill="#348ed8"/><path d="m208 200h32v64h-32z" fill="#348ed8"/><path d="m144 200h32v64h-32z" fill="#348ed8"/><path d="m272 296h32v64h-32z" fill="#348ed8"/><path d="m336 296h32v64h-32z" fill="#348ed8"/><path d="m208 296h32v64h-32z" fill="#348ed8"/><path d="m144 296h32v64h-32z" fill="#348ed8"/><path d="m272 128h32v16h-32z" fill="#2d7dbe"/><path d="m336 128h32v16h-32z" fill="#2d7dbe"/><path d="m208 128h32v16h-32z" fill="#2d7dbe"/><path d="m144 128h32v16h-32z" fill="#2d7dbe"/><path d="m272 224h32v16h-32z" fill="#2d7dbe"/><path d="m336 224h32v16h-32z" fill="#2d7dbe"/><path d="m208 224h32v16h-32z" fill="#2d7dbe"/><path d="m144 224h32v16h-32z" fill="#2d7dbe"/><path d="m272 320h32v16h-32z" fill="#2d7dbe"/><path d="m336 320h32v16h-32z" fill="#2d7dbe"/><path d="m208 320h32v16h-32z" fill="#2d7dbe"/><path d="m144 320h32v16h-32z" fill="#2d7dbe"/><g fill="#3289d1"><path d="m144 104h32v16h-32z"/><path d="m208 104h32v16h-32z"/><path d="m272 104h32v16h-32z"/><path d="m336 104h32v16h-32z"/><path d="m144 200h32v16h-32z"/><path d="m208 200h32v16h-32z"/><path d="m272 200h32v16h-32z"/><path d="m336 200h32v16h-32z"/><path d="m144 296h32v16h-32z"/><path d="m208 296h32v16h-32z"/><path d="m272 296h32v16h-32z"/><path d="m336 296h32v16h-32z"/><path d="m144 392h32v16h-32z"/><path d="m208 392h96v16h-96z"/><path d="m336 392h32v16h-32z"/></g><path d="m248 392h16v64h-16z" fill="#2d7dbe"/><path d="m480.611 385.609a22.291 22.291 0 0 0 .235-6.774 20.981 20.981 0 0 0 -41.846 2.639 22.038 22.038 0 0 0 .475 4.563c1.783 8.419-.029 17.128-4.067 24.687a29.126 29.126 0 0 0 -3.289 16.37c1.229 13.854 12.322 24.93 25.893 25.888 16.363 1.156 29.988-12.076 29.988-28.561a29 29 0 0 0 -3.269-13.433 39.259 39.259 0 0 1 -4.12-25.379z" fill="#7eb357"/><path d="m452 395.79h16v100.21h-16z" fill="#91563a"/><path d="m72.611 385.609a22.291 22.291 0 0 0 .235-6.774 20.981 20.981 0 0 0 -41.846 2.639 22.038 22.038 0 0 0 .475 4.563c1.783 8.419-.029 17.128-4.067 24.687a29.126 29.126 0 0 0 -3.289 16.37c1.229 13.854 12.322 24.93 25.893 25.888 16.363 1.156 29.988-12.076 29.988-28.561a29 29 0 0 0 -3.269-13.433 39.259 39.259 0 0 1 -4.12-25.379z" fill="#7eb357"/><path d="m44 395.79h16v100.21h-16z" fill="#91563a"/><path d="m16 480h480v16h-480z" fill="#dfdfdd"/><path d="m400 456h16v24h-16z" fill="#d8d8d6"/><path d="m96 456h16v24h-16z" fill="#eaeae8"/></g></svg>