<svg id="Capa_1" enable-background="new 0 0 512 512" height="512" viewBox="0 0 512 512" width="512" xmlns="http://www.w3.org/2000/svg"><g><g><path d="m242.106 337.415h-214.919l-27.187-243.938v-64.915c0-3.314 2.686-6 6-6h211.106c13.807 0 25 11.193 25 25z" fill="#9d6b6b"/></g><g><path d="m217.106 22.562h-36.58c14.105 0 25.539 11.434 25.539 25.539v289.315h36.041v-289.854c0-13.807-11.193-25-25-25z" fill="#8b5e5e"/></g><g><path d="m0 337.415h170.024v-67.361c0-95.355-75.529-173.057-170.024-176.577z" fill="#785252"/></g><g><path d="m0 93.477v13.28c64.052 26.541 109.114 89.648 109.114 163.297v67.361h60.91v-67.361c0-95.355-75.529-173.057-170.024-176.577z" fill="#664545"/></g><g><path d="m306.825 458.445h-306.825v-243.268h142.892c58.056 0 112.494 27.607 146.813 74.082 1.422 1.926 21.584 38.882 21.584 38.882l38.117 48.752.342.503c5.843 8.601 8.967 18.76 8.967 29.158 0 28.658-23.232 51.891-51.89 51.891z" fill="#e7ecf6"/></g><g><path d="m349.748 377.396-.342-.503-38.117-48.752s-20.161-36.956-21.584-38.882c-34.319-46.475-88.757-74.082-146.813-74.082h-44.547c60.463 0 117.001 29.943 150.976 79.957l55.881 82.262c5.843 8.601 8.967 18.76 8.967 29.158 0 28.658-23.232 51.891-51.891 51.891h44.547c28.659 0 51.891-23.232 51.891-51.891-.001-10.398-3.125-20.557-8.968-29.158z" fill="#d8e2f1"/></g><g><path d="m435.945 444.461c-4.232 0-7.662-3.43-7.662-7.662v-217.318c0-4.231 3.43-7.662 7.662-7.662s7.662 3.43 7.662 7.662v217.319c-.001 4.231-3.43 7.661-7.662 7.661z" fill="#b9cbea"/></g><g><circle cx="435.945" cy="192.074" fill="#f6e266" r="68.394"/></g><g><path d="m467.832 131.57c5.029 9.523 7.889 20.368 7.889 31.887 0 37.773-30.621 68.394-68.394 68.394-11.518 0-22.364-2.86-31.887-7.889 11.463 21.706 34.25 36.507 60.505 36.507 37.773 0 68.394-30.621 68.394-68.394-.001-26.255-14.801-49.042-36.507-60.505z" fill="#f1d333"/></g><g><path d="m435.945 268.13c-41.937 0-76.055-34.119-76.055-76.056s34.118-76.055 76.055-76.055 76.055 34.118 76.055 76.055-34.118 76.056-76.055 76.056zm0-136.788c-33.488 0-60.732 27.245-60.732 60.732 0 33.488 27.245 60.733 60.732 60.733s60.732-27.245 60.732-60.733c0-33.487-27.245-60.732-60.732-60.732z" fill="#2b4d66"/></g><g><path d="m455.371 382.32h-38.852c-3.314 0-6 2.686-6 6v28.283h50.852v-28.283c0-3.313-2.686-6-6-6z" fill="#4a80aa"/></g><g><path d="m455.371 382.32h-7.05v11.018c0 4.513-3.659 8.172-8.172 8.172h-29.63v15.093h50.852v-28.283c0-3.313-2.686-6-6-6z" fill="#407093"/></g><g><path d="m162.358 376.893h-162.358v-87.624h163.358c8.837 0 16 7.163 16 16v54.624c0 9.388-7.612 17-17 17z" fill="#90d8f9"/></g><g><path d="m163.358 289.269h-21.07c9.591 0 17.366 7.775 17.366 17.366v52.891c0 9.591-7.775 17.366-17.366 17.366h20.07c9.389 0 17-7.611 17-17v-54.624c0-8.836-7.164-15.999-16-15.999z" fill="#75cef9"/></g><g><path d="m238.415 311.786 36.531 52.298c5.607 8.027 14.78 12.809 24.571 12.809h49.89l-55.539-81.759c-1.353-1.991-2.753-3.938-4.176-5.865h-39.539c-11.577 0-18.368 13.026-11.738 22.517z" fill="#90d8f9"/></g><g><path d="m407.884 222.904c-2.208 0-4.397-.949-5.913-2.784-2.694-3.263-2.232-8.093 1.032-10.786l25.28-20.87v-26.043c0-4.231 3.43-7.662 7.662-7.662s7.662 3.43 7.662 7.662v29.653c0 2.286-1.021 4.453-2.784 5.908l-28.065 23.168c-1.428 1.179-3.156 1.754-4.874 1.754z" fill="#365e7d"/></g><g><circle cx="435.945" cy="192.074" fill="#4a80aa" r="17.133"/></g><g><path d="m442.558 176.268c.852 2.035 1.326 4.268 1.326 6.613 0 9.462-7.671 17.133-17.133 17.133-2.345 0-4.578-.473-6.613-1.326 2.588 6.178 8.689 10.52 15.807 10.52 9.462 0 17.133-7.671 17.133-17.133 0-7.118-4.342-13.22-10.52-15.807z" fill="#407093"/></g><g><path d="m473.616 413.519h-75.342c-3.314 0-6 2.686-6 6v29.349h87.342v-29.349c0-3.314-2.686-6-6-6z" fill="#4a80aa"/></g><g><path d="m473.616 413.519h-7.05v12.083c0 4.513-3.659 8.172-8.172 8.172h-66.12v15.093h87.342v-29.349c0-3.313-2.686-5.999-6-5.999z" fill="#407093"/></g><g><path d="m498.338 489.438h-492.338c-3.314 0-6-2.686-6-6v-37.24h498.338c3.314 0 6 2.686 6 6v31.24c0 3.314-2.686 6-6 6z" fill="#365e7d"/></g><g><path d="m498.338 446.198h-11.655v19.456c0 3.385-2.744 6.129-6.129 6.129h-480.554v11.655c0 3.314 2.686 6 6 6h492.338c3.314 0 6-2.686 6-6v-31.24c0-3.314-2.686-6-6-6z" fill="#2b4d66"/></g><g><path d="m249.321 295.134 55.539 81.759h44.547l-55.539-81.759c-1.353-1.991-2.753-3.938-4.176-5.865h-39.539c-1.593 0-3.091.254-4.481.704 1.241 1.698 2.462 3.414 3.649 5.161z" fill="#75cef9"/></g><g><path d="m78.952 286.011h15.323v96.309h-15.323z" fill="#e7ecf6"/></g></g></svg>